<mxfile host="app.diagrams.net" agent="Mozilla/5.0 (Macintosh; Intel Mac OS X 10_15_7) AppleWebKit/605.1.15 (KHTML, like Gecko) Version/18.1.1 Safari/605.1.15" version="26.2.14">
  <diagram name="Page-1" id="4vTmwVrxw9Dwz96C0X75">
    <mxGraphModel dx="873" dy="996" grid="0" gridSize="10" guides="1" tooltips="1" connect="1" arrows="1" fold="1" page="1" pageScale="1" pageWidth="827" pageHeight="1169" math="0" shadow="0">
      <root>
        <mxCell id="0" />
        <mxCell id="1" parent="0" />
        <mxCell id="6aL-X-VKKuIwf-SDONnR-19" value="FRIDGE" style="rounded=0;whiteSpace=wrap;html=1;fillColor=none;dashed=1;verticalAlign=bottom;fontSize=15;" vertex="1" parent="1">
          <mxGeometry x="30" y="550" width="740" height="140" as="geometry" />
        </mxCell>
        <mxCell id="6aL-X-VKKuIwf-SDONnR-2" value="Condenser&lt;div&gt;(Fridge 230 V)&lt;/div&gt;" style="rounded=0;whiteSpace=wrap;html=1;" vertex="1" parent="1">
          <mxGeometry x="340" y="520" width="120" height="125" as="geometry" />
        </mxCell>
        <mxCell id="6aL-X-VKKuIwf-SDONnR-15" style="edgeStyle=orthogonalEdgeStyle;rounded=0;orthogonalLoop=1;jettySize=auto;html=1;exitX=0.766;exitY=0.998;exitDx=0;exitDy=0;entryX=0.5;entryY=0;entryDx=0;entryDy=0;exitPerimeter=0;" edge="1" parent="1" source="6aL-X-VKKuIwf-SDONnR-3" target="6aL-X-VKKuIwf-SDONnR-14">
          <mxGeometry relative="1" as="geometry" />
        </mxCell>
        <mxCell id="6aL-X-VKKuIwf-SDONnR-3" value="esp32" style="rounded=1;whiteSpace=wrap;html=1;" vertex="1" parent="1">
          <mxGeometry x="60" y="340" width="260" height="60" as="geometry" />
        </mxCell>
        <mxCell id="6aL-X-VKKuIwf-SDONnR-4" value="Heater&lt;div&gt;(230 V)&lt;/div&gt;" style="rounded=0;whiteSpace=wrap;html=1;" vertex="1" parent="1">
          <mxGeometry x="620" y="585" width="120" height="60" as="geometry" />
        </mxCell>
        <mxCell id="6aL-X-VKKuIwf-SDONnR-8" style="edgeStyle=orthogonalEdgeStyle;rounded=0;orthogonalLoop=1;jettySize=auto;html=1;exitX=0.77;exitY=1.007;exitDx=0;exitDy=0;entryX=0.5;entryY=0;entryDx=0;entryDy=0;exitPerimeter=0;" edge="1" parent="1" source="6aL-X-VKKuIwf-SDONnR-5" target="6aL-X-VKKuIwf-SDONnR-7">
          <mxGeometry relative="1" as="geometry" />
        </mxCell>
        <mxCell id="6aL-X-VKKuIwf-SDONnR-9" style="edgeStyle=orthogonalEdgeStyle;rounded=0;orthogonalLoop=1;jettySize=auto;html=1;exitX=0.23;exitY=0.96;exitDx=0;exitDy=0;entryX=0.5;entryY=0;entryDx=0;entryDy=0;exitPerimeter=0;" edge="1" parent="1" source="6aL-X-VKKuIwf-SDONnR-5" target="6aL-X-VKKuIwf-SDONnR-2">
          <mxGeometry relative="1" as="geometry" />
        </mxCell>
        <mxCell id="6aL-X-VKKuIwf-SDONnR-11" style="edgeStyle=orthogonalEdgeStyle;rounded=0;orthogonalLoop=1;jettySize=auto;html=1;exitX=0.773;exitY=1.017;exitDx=0;exitDy=0;entryX=0.5;entryY=0;entryDx=0;entryDy=0;exitPerimeter=0;" edge="1" parent="1" source="6aL-X-VKKuIwf-SDONnR-5" target="6aL-X-VKKuIwf-SDONnR-6">
          <mxGeometry relative="1" as="geometry" />
        </mxCell>
        <mxCell id="6aL-X-VKKuIwf-SDONnR-5" value="Shelly 2PM" style="rounded=1;whiteSpace=wrap;html=1;" vertex="1" parent="1">
          <mxGeometry x="340" y="340" width="260" height="60" as="geometry" />
        </mxCell>
        <mxCell id="6aL-X-VKKuIwf-SDONnR-10" style="edgeStyle=orthogonalEdgeStyle;rounded=0;orthogonalLoop=1;jettySize=auto;html=1;exitX=0.5;exitY=1;exitDx=0;exitDy=0;entryX=0.5;entryY=0;entryDx=0;entryDy=0;" edge="1" parent="1" source="6aL-X-VKKuIwf-SDONnR-6" target="6aL-X-VKKuIwf-SDONnR-4">
          <mxGeometry relative="1" as="geometry" />
        </mxCell>
        <mxCell id="6aL-X-VKKuIwf-SDONnR-6" value="Shelly Dimmer" style="rounded=1;whiteSpace=wrap;html=1;" vertex="1" parent="1">
          <mxGeometry x="620" y="470" width="120" height="60" as="geometry" />
        </mxCell>
        <mxCell id="6aL-X-VKKuIwf-SDONnR-7" value="Heater Fan&lt;div&gt;(230 V)&lt;/div&gt;" style="rounded=0;whiteSpace=wrap;html=1;" vertex="1" parent="1">
          <mxGeometry x="480" y="585" width="120" height="60" as="geometry" />
        </mxCell>
        <mxCell id="6aL-X-VKKuIwf-SDONnR-13" style="edgeStyle=orthogonalEdgeStyle;rounded=0;orthogonalLoop=1;jettySize=auto;html=1;exitX=0.5;exitY=0;exitDx=0;exitDy=0;entryX=0.23;entryY=0.979;entryDx=0;entryDy=0;entryPerimeter=0;" edge="1" parent="1" source="6aL-X-VKKuIwf-SDONnR-12" target="6aL-X-VKKuIwf-SDONnR-3">
          <mxGeometry relative="1" as="geometry" />
        </mxCell>
        <mxCell id="6aL-X-VKKuIwf-SDONnR-12" value="Temp / RH Sensor" style="rounded=0;whiteSpace=wrap;html=1;" vertex="1" parent="1">
          <mxGeometry x="60" y="585" width="120" height="60" as="geometry" />
        </mxCell>
        <mxCell id="6aL-X-VKKuIwf-SDONnR-14" value="Circulation Fan&lt;div&gt;(5/12/24 V)&lt;/div&gt;" style="rounded=0;whiteSpace=wrap;html=1;" vertex="1" parent="1">
          <mxGeometry x="200" y="585" width="120" height="60" as="geometry" />
        </mxCell>
        <mxCell id="6aL-X-VKKuIwf-SDONnR-16" value="" style="sketch=0;pointerEvents=1;shadow=0;dashed=0;html=1;strokeColor=none;fillColor=#434445;aspect=fixed;labelPosition=center;verticalLabelPosition=bottom;verticalAlign=top;align=center;outlineConnect=0;shape=mxgraph.vvd.wi_fi;" vertex="1" parent="1">
          <mxGeometry x="270" y="280" width="50" height="50" as="geometry" />
        </mxCell>
        <mxCell id="6aL-X-VKKuIwf-SDONnR-17" value="" style="sketch=0;pointerEvents=1;shadow=0;dashed=0;html=1;strokeColor=none;fillColor=#434445;aspect=fixed;labelPosition=center;verticalLabelPosition=bottom;verticalAlign=top;align=center;outlineConnect=0;shape=mxgraph.vvd.wi_fi;flipV=0;flipH=1;" vertex="1" parent="1">
          <mxGeometry x="340" y="280" width="50" height="50" as="geometry" />
        </mxCell>
        <mxCell id="6aL-X-VKKuIwf-SDONnR-18" value="mqtt" style="text;html=1;align=center;verticalAlign=middle;resizable=0;points=[];autosize=1;strokeColor=none;fillColor=none;" vertex="1" parent="1">
          <mxGeometry x="305" y="260" width="50" height="30" as="geometry" />
        </mxCell>
      </root>
    </mxGraphModel>
  </diagram>
</mxfile>
